<?xml version="1.0" encoding="UTF-8"?>
<svg width="255px" height="39px" viewBox="0 0 255 39" version="1.1" xmlns="http://www.w3.org/2000/svg" xmlns:xlink="http://www.w3.org/1999/xlink">
    <!-- Generator: Sketch 40.3 (33839) - http://www.bohemiancoding.com/sketch -->
    <title>wordmark</title>
    <desc>Created with Sketch.</desc>
    <defs></defs>
    <g id="Page-1" stroke="none" stroke-width="1" fill="none" fill-rule="evenodd">
        <g id="wordmark" fill="#FFFFFF">
            <polyline id="Fill-1" points="0 0.74475 11.3042478 0.74475 11.3042478 2.85 6.86469027 2.85 6.86469027 14.66775 4.42 14.66775 4.42 2.85 0 2.85 0 0.74475"></polyline>
            <polyline id="Fill-2" points="12.8680973 0.74475 15.3127876 0.74475 15.3127876 6.28275 21.6697345 6.28275 21.6697345 0.74475 24.1144248 0.74475 24.1144248 14.66775 21.6697345 14.66775 21.6697345 8.38875 15.3127876 8.38875 15.3127876 14.66775 12.8680973 14.66775 12.8680973 0.74475"></polyline>
            <polyline id="Fill-3" points="27.0473009 0.74475 37.0998673 0.74475 37.0998673 2.85 29.4919912 2.85 29.4919912 6.49725 36.5326991 6.49725 36.5326991 8.48625 29.4919912 8.48625 29.4919912 12.56175 37.2367699 12.56175 37.2367699 14.66775 27.0473009 14.66775 27.0473009 0.74475"></polyline>
            <polygon id="Fill-4" points="44.8047788 14.66775 47.249469 14.66775 47.249469 0.74475 44.8047788 0.74475"></polygon>
            <path d="M50.4772124,0.74475 L52.9219027,0.74475 L52.9219027,8.85675 C52.9219027,10.72875 53.0392478,12.89325 56.2075664,12.89325 C59.375885,12.89325 59.4924779,10.72875 59.4924779,8.85675 L59.4924779,0.74475 L61.9379204,0.74475 L61.9379204,9.65625 C61.9379204,13.22475 59.6496903,15 56.2075664,15 C52.7646903,15 50.4772124,13.22475 50.4772124,9.65625 L50.4772124,0.74475" id="Fill-5"></path>
            <path d="M74.1809292,5.17125 C73.7702212,3.5715 72.7329204,2.40225 70.6996903,2.40225 C67.7066372,2.40225 66.4549558,5.03475 66.4549558,7.70625 C66.4549558,10.37775 67.7066372,13.01025 70.6996903,13.01025 C72.8705752,13.01025 74.0628319,11.39175 74.2584071,9.36375 L76.645177,9.36375 C76.4488496,12.69825 74.0831416,15 70.6996903,15 C66.5136283,15 64.0102655,11.68425 64.0102655,7.70625 C64.0102655,3.7275 66.5136283,0.4125 70.6996903,0.4125 C73.8476991,0.43275 76.3322566,2.1675 76.6256195,5.17125 L74.1809292,5.17125" id="Fill-6"></path>
            <polyline id="Fill-7" points="78.7754425 0.74475 81.3577876 0.74475 87.7327876 11.00175 87.7726549 11.00175 87.7726549 0.74475 90.1 0.74475 90.1 14.66775 87.5184071 14.66775 81.1614602 4.43025 81.1035398 4.43025 81.1035398 14.66775 78.7754425 14.66775 78.7754425 0.74475"></polyline>
            <path d="M100.875442,7.08225 L104.884735,7.08225 C106.429779,7.08225 107.271504,6.321 107.271504,4.85925 C107.271504,3.08475 106.116858,2.73375 104.845619,2.73375 L100.875442,2.73375 L100.875442,7.08225 L100.875442,7.08225 Z M98.4307522,0.74475 L105.099867,0.74475 C108.151593,0.74475 109.716195,2.14875 109.716195,4.5075 C109.716195,7.17975 107.857478,7.86225 107.408407,8.01825 L107.408407,8.05725 C108.249381,8.17425 109.480752,8.79825 109.480752,11.00175 C109.480752,12.62025 109.716195,14.10225 110.243496,14.66775 L107.62354,14.66775 C107.251947,14.064 107.251947,13.30275 107.251947,12.62025 C107.251947,10.06575 106.723142,8.93475 104.474027,8.93475 L100.875442,8.93475 L100.875442,14.66775 L98.4307522,14.66775 L98.4307522,0.74475 L98.4307522,0.74475 Z" id="Fill-8"></path>
            <polyline id="Fill-9" points="112.199248 0.74475 122.251814 0.74475 122.251814 2.85 114.643938 2.85 114.643938 6.49725 121.684646 6.49725 121.684646 8.48625 114.643938 8.48625 114.643938 12.56175 122.389469 12.56175 122.389469 14.66775 112.199248 14.66775 112.199248 0.74475"></polyline>
            <path d="M126.965177,12.67875 L129.370752,12.67875 C133.204027,12.67875 134.025442,10.49475 134.025442,7.70625 C134.025442,4.91775 133.204027,2.73375 129.370752,2.73375 L126.965177,2.73375 L126.965177,12.67875 L126.965177,12.67875 Z M124.520487,0.74475 L130.309513,0.74475 C134.61292,0.74475 136.470133,3.86475 136.470133,7.70625 C136.470133,11.54775 134.61292,14.66775 130.309513,14.66775 L124.520487,14.66775 L124.520487,0.74475 L124.520487,0.74475 Z" id="Fill-10"></path>
            <polyline id="Fill-11" points="144.077257 0.74475 146.521947 0.74475 146.521947 12.56175 153.62208 12.56175 153.62208 14.66775 144.077257 14.66775 144.077257 0.74475"></polyline>
            <polygon id="Fill-12" points="154.912124 14.66775 157.356814 14.66775 157.356814 0.74475 154.912124 0.74475"></polygon>
            <path d="M161.952832,10.02675 C161.952832,12.17175 163.537743,13.01025 165.492743,13.01025 C167.644071,13.01025 168.445929,11.95725 168.445929,10.90425 C168.445929,9.83175 167.859956,9.40275 167.292788,9.18825 C166.314159,8.81775 165.043673,8.56425 163.126283,8.03775 C160.740265,7.39425 160.036195,5.95125 160.036195,4.5075 C160.036195,1.71975 162.617788,0.4125 165.140708,0.4125 C168.055531,0.4125 170.500221,1.953 170.500221,4.85925 L168.055531,4.85925 C167.937434,3.06525 166.724867,2.40225 165.043673,2.40225 C163.908584,2.40225 162.480885,2.81175 162.480885,4.21575 C162.480885,5.19075 163.145841,5.73675 164.143274,6.009 C164.359159,6.06825 167.448496,6.86775 168.172876,7.08225 C170.010531,7.62825 170.890619,9.18825 170.890619,10.63125 C170.890619,13.752 168.114204,15 165.336283,15 C162.148407,15 159.566062,13.47825 159.507389,10.02675 L161.952832,10.02675" id="Fill-13"></path>
            <polyline id="Fill-14" points="170.909425 0.74475 182.214425 0.74475 182.214425 2.85 177.774867 2.85 177.774867 14.66775 175.329425 14.66775 175.329425 2.85 170.909425 2.85 170.909425 0.74475"></polyline>
            <path d="M3.03141593,31.70625 C3.03141593,34.37775 4.28309735,37.01025 7.27539823,37.01025 C10.2676991,37.01025 11.5193805,34.37775 11.5193805,31.70625 C11.5193805,29.03475 10.2676991,26.40225 7.27539823,26.40225 C4.28309735,26.40225 3.03141593,29.03475 3.03141593,31.70625 L3.03141593,31.70625 Z M13.9640708,31.70625 C13.9640708,35.68425 11.460708,39 7.27539823,39 C3.0900885,39 0.586725664,35.68425 0.586725664,31.70625 C0.586725664,27.7275 3.0900885,24.4125 7.27539823,24.4125 C11.460708,24.4125 13.9640708,27.7275 13.9640708,31.70625 L13.9640708,31.70625 Z" id="Fill-16"></path>
            <polyline id="Fill-18" points="16.1928761 24.74475 25.8354867 24.74475 25.8354867 26.85 18.6375664 26.85 18.6375664 30.49725 24.9553982 30.49725 24.9553982 32.48625 18.6375664 32.48625 18.6375664 38.66775 16.1928761 38.66775 16.1928761 24.74475"></polyline>
            <polyline id="Fill-19" points="31.8975664 24.74475 43.2018142 24.74475 43.2018142 26.85 38.7622566 26.85 38.7622566 38.66775 36.3175664 38.66775 36.3175664 26.85 31.8975664 26.85 31.8975664 24.74475"></polyline>
            <polyline id="Fill-20" points="44.7656637 24.74475 47.210354 24.74475 47.210354 30.28275 53.5673009 30.28275 53.5673009 24.74475 56.0119912 24.74475 56.0119912 38.66775 53.5673009 38.66775 53.5673009 32.38875 47.210354 32.38875 47.210354 38.66775 44.7656637 38.66775 44.7656637 24.74475"></polyline>
            <path d="M61.3895575,31.08225 L65.3988496,31.08225 C66.944646,31.08225 67.7848673,30.321 67.7848673,28.85925 C67.7848673,27.08475 66.6317257,26.73375 65.3597345,26.73375 L61.3895575,26.73375 L61.3895575,31.08225 L61.3895575,31.08225 Z M58.9448673,24.74475 L65.6139823,24.74475 C68.6649558,24.74475 70.2295575,26.14875 70.2295575,28.5075 C70.2295575,31.17975 68.3715929,31.86225 67.9217699,32.01825 L67.9217699,32.05725 C68.7634956,32.17425 69.9948673,32.79825 69.9948673,35.00175 C69.9948673,36.62025 70.2295575,38.10225 70.7583628,38.66775 L68.1376549,38.66775 C67.7653097,38.064 67.7653097,37.30275 67.7653097,36.62025 C67.7653097,34.06575 67.2372566,32.93475 64.9881416,32.93475 L61.3895575,32.93475 L61.3895575,38.66775 L58.9448673,38.66775 L58.9448673,24.74475 L58.9448673,24.74475 Z" id="Fill-21"></path>
            <polyline id="Fill-22" points="72.7133628 24.74475 82.7659292 24.74475 82.7659292 26.85 75.1580531 26.85 75.1580531 30.49725 82.1987611 30.49725 82.1987611 32.48625 75.1580531 32.48625 75.1580531 36.56175 82.9020796 36.56175 82.9020796 38.66775 72.7133628 38.66775 72.7133628 24.74475"></polyline>
            <path d="M87.5184071,33.12975 L91.7819469,33.12975 L89.689292,27.14325 L89.6306195,27.14325 L87.5184071,33.12975 L87.5184071,33.12975 Z M88.3789381,24.74475 L90.9800885,24.74475 L96.3584071,38.66775 L93.7376991,38.66775 L92.4273451,34.98225 L86.8526991,34.98225 L85.5423451,38.66775 L83.020177,38.66775 L88.3789381,24.74475 L88.3789381,24.74475 Z" id="Fill-23"></path>
            <polyline id="Fill-24" points="94.5621239 24.74475 105.867124 24.74475 105.867124 26.85 101.426814 26.85 101.426814 38.66775 98.9821239 38.66775 98.9821239 26.85 94.5621239 26.85 94.5621239 24.74475"></polyline>
            <polyline id="Fill-25" points="107.489646 24.74475 117.542212 24.74475 117.542212 26.85 109.934336 26.85 109.934336 30.49725 116.975044 30.49725 116.975044 32.48625 109.934336 32.48625 109.934336 36.56175 117.679115 36.56175 117.679115 38.66775 107.489646 38.66775 107.489646 24.74475"></polyline>
            <polyline id="Fill-26" points="119.713097 24.74475 122.295442 24.74475 128.670442 35.00175 128.709558 35.00175 128.709558 24.74475 131.037655 24.74475 131.037655 38.66775 128.45531 38.66775 122.099115 28.43025 122.040442 28.43025 122.040442 38.66775 119.713097 38.66775 119.713097 24.74475"></polyline>
            <polyline id="Fill-27" points="133.930664 24.74475 143.983982 24.74475 143.983982 26.85 136.375354 26.85 136.375354 30.49725 143.416814 30.49725 143.416814 32.48625 136.375354 32.48625 136.375354 36.56175 144.120885 36.56175 144.120885 38.66775 133.930664 38.66775 133.930664 24.74475"></polyline>
            <path d="M148.696593,36.67875 L151.102168,36.67875 C154.935442,36.67875 155.757611,34.49475 155.757611,31.70625 C155.757611,28.91775 154.935442,26.73375 151.102168,26.73375 L148.696593,26.73375 L148.696593,36.67875 L148.696593,36.67875 Z M146.251903,24.74475 L152.041681,24.74475 C156.344336,24.74475 158.202301,27.86475 158.202301,31.70625 C158.202301,35.54775 156.344336,38.66775 152.041681,38.66775 L146.251903,38.66775 L146.251903,24.74475 L146.251903,24.74475 Z" id="Fill-28"></path>
            <path d="M167.413142,34.02675 C167.413142,36.17175 168.997301,37.01025 170.953053,37.01025 C173.104381,37.01025 173.906239,35.95725 173.906239,34.90425 C173.906239,33.83175 173.319513,33.40275 172.752345,33.18825 C171.774469,32.81775 170.502478,32.56425 168.586593,32.03775 C166.200575,31.39425 165.495752,29.95125 165.495752,28.5075 C165.495752,25.71975 168.078097,24.4125 170.601018,24.4125 C173.515088,24.4125 175.959779,25.953 175.959779,28.85925 L173.515088,28.85925 C173.397743,27.06525 172.185177,26.40225 170.502478,26.40225 C169.368894,26.40225 167.940442,26.81175 167.940442,28.21575 C167.940442,29.19075 168.60615,29.73675 169.603584,30.009 C169.817965,30.06825 172.909558,30.86775 173.632434,31.08225 C175.470841,31.62825 176.351681,33.18825 176.351681,34.63125 C176.351681,37.752 173.573761,39 170.796593,39 C167.608717,39 165.027124,37.47825 164.968451,34.02675 L167.413142,34.02675" id="Fill-30"></path>
            <path d="M180.926637,31.33575 L184.506416,31.33575 C185.601637,31.33575 186.951106,30.78975 186.951106,29.03475 C186.951106,27.201 185.836327,26.73375 184.544779,26.73375 L180.926637,26.73375 L180.926637,31.33575 L180.926637,31.33575 Z M178.481947,24.74475 L184.643319,24.74475 C188.633053,24.74475 189.395796,27.31875 189.395796,29.05425 C189.395796,30.77025 188.633053,33.34425 184.643319,33.32475 L180.926637,33.32475 L180.926637,38.66775 L178.481947,38.66775 L178.481947,24.74475 L178.481947,24.74475 Z" id="Fill-32"></path>
            <polyline id="Fill-33" points="190.353363 24.74475 200.405929 24.74475 200.405929 26.85 192.798053 26.85 192.798053 30.49725 199.838761 30.49725 199.838761 32.48625 192.798053 32.48625 192.798053 36.56175 200.542832 36.56175 200.542832 38.66775 190.353363 38.66775 190.353363 24.74475"></polyline>
            <path d="M212.101327,29.17125 C211.690619,27.5715 210.654071,26.40225 208.620088,26.40225 C205.627788,26.40225 204.376106,29.03475 204.376106,31.70625 C204.376106,34.37775 205.627788,37.01025 208.620088,37.01025 C210.791726,37.01025 211.984735,35.39175 212.18031,33.36375 L214.566327,33.36375 C214.370752,36.69825 212.00354,39 208.620088,39 C204.434779,39 201.931416,35.68425 201.931416,31.70625 C201.931416,27.7275 204.434779,24.4125 208.620088,24.4125 C211.76885,24.43275 214.253407,26.1675 214.54677,29.17125 L212.101327,29.17125" id="Fill-35"></path>
            <polygon id="Fill-37" points="216.794381 38.66775 219.239071 38.66775 219.239071 24.74475 216.794381 24.74475"></polygon>
            <polyline id="Fill-38" points="222.232124 24.74475 232.28469 24.74475 232.28469 26.85 224.676814 26.85 224.676814 30.49725 231.71677 30.49725 231.71677 32.48625 224.676814 32.48625 224.676814 36.56175 232.421593 36.56175 232.421593 38.66775 222.232124 38.66775 222.232124 24.74475"></polyline>
            <path d="M236.15708,34.02675 C236.15708,36.17175 237.740487,37.01025 239.696991,37.01025 C241.848319,37.01025 242.650177,35.95725 242.650177,34.90425 C242.650177,33.83175 242.062699,33.40275 241.495531,33.18825 C240.518407,32.81775 239.246416,32.56425 237.329779,32.03775 C234.943761,31.39425 234.23969,29.95125 234.23969,28.5075 C234.23969,25.71975 236.822035,24.4125 239.344956,24.4125 C242.259027,24.4125 244.703717,25.953 244.703717,28.85925 L242.259027,28.85925 C242.141681,27.06525 240.928363,26.40225 239.246416,26.40225 C238.11208,26.40225 236.684381,26.81175 236.684381,28.21575 C236.684381,29.19075 237.350088,29.73675 238.347522,30.009 C238.561903,30.06825 241.652743,30.86775 242.375619,31.08225 C244.214779,31.62825 245.095619,33.18825 245.095619,34.63125 C245.095619,37.752 242.316947,39 239.540531,39 C236.351903,39 233.771062,37.47825 233.712389,34.02675 L236.15708,34.02675" id="Fill-40"></path>
            <polyline id="Fill-65" points="245.946372 24.7605 249.524646 24.7605 249.524646 25.42725 248.120265 25.42725 248.120265 29.1675 247.346239 29.1675 247.346239 25.42725 245.946372 25.42725 245.946372 24.7605"></polyline>
            <polyline id="Fill-66" points="250.028628 24.7605 251.117832 24.7605 252.33792 28.21125 252.350708 28.21125 253.539204 24.7605 254.616372 24.7605 254.616372 29.1675 253.879204 29.1675 253.879204 25.76625 253.86792 25.76625 252.641814 29.1675 252.003186 29.1675 250.777832 25.76625 250.765796 25.76625 250.765796 29.1675 250.028628 29.1675 250.028628 24.7605"></polyline>
        </g>
    </g>
</svg>